<svg width="586" height="536" viewBox="0 0 586 536" fill="none" xmlns="http://www.w3.org/2000/svg">
<g clip-path="url(#clip0_44_95)">
<path d="M391.078 188.472H195.1C191.736 188.468 188.511 187.116 186.132 184.713C183.753 182.309 182.415 179.05 182.411 175.651V20.1211C182.414 17.6307 183.394 15.2432 185.137 13.4822C186.88 11.7212 189.242 10.7307 191.707 10.7278H394.31C396.818 10.7307 399.221 11.7384 400.994 13.5298C402.767 15.3212 403.764 17.75 403.767 20.2835V175.651C403.763 179.05 402.425 182.309 400.046 184.713C397.668 187.116 394.442 188.468 391.078 188.472Z" fill="#F2F2F2"/>
<path d="M207.405 175.651H378.774C382.037 175.651 385.167 174.341 387.474 172.009C389.782 169.678 391.078 166.515 391.078 163.218V43.9033C391.078 40.6059 389.782 37.4436 387.474 35.1119C385.167 32.7803 382.037 31.4705 378.774 31.4705H207.405C204.141 31.4705 201.012 32.7803 198.704 35.1119C196.396 37.4436 195.1 40.6059 195.1 43.9033V163.218C195.1 166.515 196.396 169.678 198.704 172.009C201.012 174.341 204.141 175.651 207.405 175.651Z" fill="white"/>
<path d="M403.59 19.3876H182.233V12.8601C182.238 9.4495 183.581 6.18015 185.969 3.76927C188.356 1.35838 191.593 0.00282798 194.968 0H390.855C394.231 0.00280127 397.467 1.35834 399.855 3.76924C402.242 6.18013 403.586 9.44948 403.59 12.8601V19.3876Z" fill="#CCCCCC"/>
<path d="M205.377 13.0416C207.196 13.0416 208.671 11.5514 208.671 9.7132C208.671 7.87496 207.196 6.38477 205.377 6.38477C203.558 6.38477 202.083 7.87496 202.083 9.7132C202.083 11.5514 203.558 13.0416 205.377 13.0416Z" fill="white"/>
<path d="M217.88 13.0416C219.7 13.0416 221.175 11.5514 221.175 9.7132C221.175 7.87496 219.7 6.38477 217.88 6.38477C216.061 6.38477 214.586 7.87496 214.586 9.7132C214.586 11.5514 216.061 13.0416 217.88 13.0416Z" fill="white"/>
<path d="M230.384 13.0416C232.203 13.0416 233.678 11.5514 233.678 9.7132C233.678 7.87496 232.203 6.38477 230.384 6.38477C228.565 6.38477 227.09 7.87496 227.09 9.7132C227.09 11.5514 228.565 13.0416 230.384 13.0416Z" fill="white"/>
<path d="M220.015 87.384H211.528C211.068 87.3835 210.626 87.1985 210.301 86.8697C209.976 86.5409 209.793 86.095 209.792 85.6299V77.0544C209.793 76.5893 209.976 76.1435 210.301 75.8146C210.626 75.4858 211.068 75.3008 211.528 75.3003H220.015C220.475 75.3008 220.916 75.4858 221.242 75.8146C221.567 76.1435 221.75 76.5893 221.751 77.0544V85.6299C221.75 86.095 221.567 86.5408 221.242 86.8697C220.916 87.1985 220.475 87.3835 220.015 87.384Z" fill="#002C53"/>
<path d="M220.015 109.603H211.528C211.068 109.602 210.626 109.417 210.301 109.088C209.976 108.759 209.793 108.313 209.792 107.848V99.2729C209.793 98.8078 209.976 98.362 210.301 98.0331C210.626 97.7043 211.068 97.5193 211.528 97.5188H220.015C220.475 97.5193 220.916 97.7043 221.242 98.0331C221.567 98.362 221.75 98.8078 221.751 99.2729V107.848C221.75 108.313 221.567 108.759 221.242 109.088C220.916 109.417 220.475 109.602 220.015 109.603Z" fill="#3F3D56"/>
<path d="M220.015 131.821H211.528C211.068 131.82 210.626 131.636 210.301 131.307C209.976 130.978 209.793 130.532 209.792 130.067V121.491C209.793 121.026 209.976 120.58 210.301 120.252C210.626 119.923 211.068 119.738 211.528 119.737H220.015C220.475 119.738 220.916 119.923 221.242 120.252C221.567 120.58 221.75 121.026 221.751 121.491V130.067C221.75 130.532 221.567 130.978 221.242 131.307C220.916 131.636 220.475 131.82 220.015 131.821Z" fill="#CCCCCC"/>
<path d="M275.567 83.0963H234.675C234.215 83.0953 233.774 82.9101 233.45 82.5813C233.125 82.2524 232.942 81.8068 232.942 81.3422C232.942 80.8777 233.125 80.4321 233.45 80.1032C233.774 79.7744 234.215 79.5891 234.675 79.5881H275.567C275.795 79.5877 276.021 79.6327 276.232 79.7206C276.443 79.8085 276.635 79.9377 276.797 80.1006C276.958 80.2635 277.086 80.4571 277.174 80.6701C277.261 80.8832 277.306 81.1116 277.306 81.3422C277.306 81.5729 277.261 81.8013 277.174 82.0143C277.086 82.2274 276.958 82.4209 276.797 82.5839C276.635 82.7468 276.443 82.8759 276.232 82.9639C276.021 83.0518 275.795 83.0968 275.567 83.0963Z" fill="#CCCCCC"/>
<path d="M275.567 105.315H234.675C234.215 105.314 233.774 105.129 233.45 104.8C233.125 104.471 232.942 104.025 232.942 103.561C232.942 103.096 233.125 102.651 233.45 102.322C233.774 101.993 234.215 101.808 234.675 101.807H275.567C276.027 101.807 276.469 101.991 276.794 102.32C277.12 102.649 277.303 103.096 277.303 103.561C277.303 104.026 277.12 104.472 276.794 104.801C276.469 105.13 276.027 105.315 275.567 105.315Z" fill="#CCCCCC"/>
<path d="M275.567 127.533H234.675C234.215 127.532 233.774 127.347 233.45 127.018C233.125 126.689 232.942 126.244 232.942 125.779C232.942 125.315 233.125 124.869 233.45 124.54C233.774 124.211 234.215 124.026 234.675 124.025H275.567C275.795 124.025 276.021 124.07 276.232 124.158C276.443 124.246 276.635 124.375 276.797 124.538C276.958 124.701 277.086 124.894 277.174 125.107C277.261 125.32 277.306 125.549 277.306 125.779C277.306 126.01 277.261 126.238 277.174 126.451C277.086 126.664 276.958 126.858 276.797 127.021C276.635 127.184 276.443 127.313 276.232 127.401C276.021 127.489 275.795 127.534 275.567 127.533Z" fill="#CCCCCC"/>
<path d="M376.317 104.118C376.361 103.38 376.386 102.638 376.386 101.889C376.386 92.1378 372.552 82.7857 365.728 75.8903C358.904 68.9949 349.648 65.1211 339.997 65.1211V104.118H376.317Z" fill="#002C53"/>
<path d="M337.24 107.46V68.4636C330.137 68.4633 323.189 70.5636 317.253 74.5055C311.317 78.4474 306.653 84.0585 303.835 90.6469C301.018 97.2353 300.17 104.513 301.397 111.582C302.624 118.652 305.871 125.204 310.739 130.43C315.607 135.657 321.883 139.33 328.792 140.996C335.701 142.662 342.942 142.248 349.621 139.806C356.3 137.364 362.126 133 366.38 127.252C370.634 121.504 373.13 114.624 373.561 107.46H337.24Z" fill="#3F3D56"/>
<path d="M585.231 536H0.769029C0.56507 536 0.369464 535.918 0.225243 535.772C0.0810219 535.627 0 535.429 0 535.223C0 535.017 0.0810219 534.819 0.225243 534.673C0.369464 534.528 0.56507 534.446 0.769029 534.446H585.231C585.435 534.446 585.63 534.528 585.775 534.673C585.919 534.819 586 535.017 586 535.223C586 535.429 585.919 535.627 585.775 535.772C585.63 535.918 585.435 536 585.231 536Z" fill="#CCCCCC"/>
<path d="M388.121 320.864C388.378 321.216 388.606 321.588 388.805 321.977L427.344 326.355L432.949 318.703L445.483 325.741L434.45 344.328L387.235 331.807C386.033 332.975 384.509 333.744 382.864 334.015C381.218 334.285 379.531 334.043 378.026 333.32C376.52 332.598 375.268 331.429 374.436 329.97C373.603 328.511 373.23 326.831 373.366 325.152C373.502 323.474 374.141 321.877 375.197 320.574C376.253 319.271 377.676 318.324 379.278 317.859C380.879 317.393 382.584 317.432 384.163 317.968C385.743 318.505 387.123 319.515 388.121 320.864Z" fill="#FFB8B8"/>
<path d="M191.478 310.811C190.504 311.39 189.415 311.746 188.29 311.854C187.164 311.961 186.029 311.819 184.964 311.435C183.899 311.052 182.93 310.437 182.126 309.634C181.321 308.832 180.701 307.861 180.308 306.789L152.833 307.368L160.445 295.159L185.369 296.481C187.193 295.934 189.153 296.082 190.877 296.897C192.601 297.712 193.969 299.138 194.722 300.904C195.476 302.67 195.561 304.654 194.963 306.48C194.365 308.306 193.125 309.847 191.478 310.811Z" fill="#FFB8B8"/>
<path d="M179.403 307.316C179.185 308.052 178.733 308.695 178.118 309.146C177.502 309.597 176.757 309.832 175.997 309.813L125.713 308.522L80.1814 294.901C78.9285 294.526 77.7618 293.903 76.7492 293.069C75.7366 292.235 74.8982 291.205 74.2829 290.04C73.6675 288.876 73.2875 287.599 73.1649 286.285C73.0422 284.97 73.1794 283.644 73.5685 282.384C73.9575 281.123 74.5906 279.954 75.4311 278.943C76.2715 277.932 77.3025 277.1 78.464 276.495C79.6255 275.89 80.8944 275.525 82.1969 275.42C83.4994 275.315 84.8096 275.473 86.0512 275.885L127.187 289.513L176.559 294.327C177.424 294.416 178.225 294.828 178.804 295.483C179.383 296.138 179.698 296.989 179.687 297.867L179.544 306.376C179.539 306.695 179.492 307.011 179.403 307.316Z" fill="#3F3D56"/>
<path d="M106.481 525.754L115.908 525.753L120.394 489.008L106.479 489.008L106.481 525.754Z" fill="#FFB8B8"/>
<path d="M104.075 522.643L122.643 522.642H122.643C124.197 522.642 125.736 522.952 127.172 523.552C128.607 524.153 129.912 525.034 131.01 526.144C132.109 527.254 132.981 528.572 133.575 530.023C134.17 531.473 134.476 533.028 134.476 534.598V534.987L104.076 534.988L104.075 522.643Z" fill="#2F2E41"/>
<path d="M78.7955 525.754L88.223 525.753L92.7088 489.008L78.7939 489.008L78.7955 525.754Z" fill="#FFB8B8"/>
<path d="M76.3904 522.643L94.9577 522.642H94.9584C96.5123 522.642 98.051 522.952 99.4866 523.552C100.922 524.153 102.227 525.034 103.325 526.144C104.424 527.254 105.296 528.572 105.89 530.023C106.485 531.473 106.791 533.028 106.791 534.598V534.987L76.391 534.988L76.3904 522.643Z" fill="#2F2E41"/>
<path d="M72.4678 377.253L74.7191 512.222C74.7262 512.649 74.8205 513.071 74.9961 513.46C75.1717 513.849 75.4248 514.197 75.7396 514.482C76.0544 514.768 76.4241 514.985 76.8256 515.119C77.2272 515.254 77.6519 515.304 78.0732 515.265L89.1059 514.252C89.8295 514.185 90.5065 513.862 91.0169 513.339C91.5273 512.817 91.8381 512.128 91.8943 511.396L98.3533 427.207C98.3684 427.009 98.4579 426.824 98.6033 426.691C98.7486 426.558 98.9389 426.486 99.1352 426.49C99.3314 426.494 99.5188 426.573 99.6588 426.712C99.7989 426.851 99.8811 427.039 99.8885 427.237L103.117 513.354C103.147 514.158 103.484 514.918 104.057 515.476C104.63 516.033 105.395 516.345 106.191 516.345H118.023C118.806 516.345 119.56 516.043 120.13 515.501C120.701 514.958 121.045 514.216 121.093 513.426L129.376 376.476L80.1581 364.043L72.4678 377.253Z" fill="#2F2E41"/>
<path d="M108.167 250.518C118.599 250.518 127.055 241.974 127.055 231.433C127.055 220.893 118.599 212.348 108.167 212.348C97.7356 212.348 89.2791 220.893 89.2791 231.433C89.2791 241.974 97.7356 250.518 108.167 250.518Z" fill="#FFB8B8"/>
<path d="M128.652 382.257C128.634 382.257 128.615 382.256 128.597 382.256L84.431 381.569C83.5821 381.556 82.7675 381.228 82.1424 380.647C81.5173 380.067 81.1252 379.274 81.0408 378.421L80.5408 373.368C80.5313 373.272 80.4869 373.183 80.4162 373.118C80.3455 373.053 80.2535 373.018 80.1582 373.018C80.0628 373.018 79.9709 373.053 79.9002 373.118C79.8295 373.183 79.7851 373.272 79.7756 373.368L79.2591 378.587C79.179 379.404 78.8165 380.166 78.2352 380.74C77.654 381.314 76.8913 381.663 76.081 381.725L72.9598 381.967C72.4097 382.01 71.8575 381.92 71.3491 381.703C70.8408 381.486 70.3911 381.15 70.0375 380.722C69.684 380.294 69.4368 379.787 69.3167 379.243C69.1965 378.699 69.2069 378.133 69.3469 377.594L72.0344 367.241C77.5956 345.723 78.043 323.181 73.34 301.455L72.0045 295.317C70.9978 290.732 71.4586 285.942 73.3204 281.638C75.1822 277.334 78.3488 273.739 82.3635 271.371L91.0384 266.233L94.9742 260.268C95.7358 259.116 96.761 258.167 97.9629 257.502C99.1647 256.836 100.508 256.472 101.878 256.443C107.369 256.321 116.787 257.337 118.556 265.449C122.942 266.963 126.739 269.843 129.403 273.674C132.067 277.505 133.461 282.091 133.385 286.773L132.111 378.808C132.098 379.727 131.728 380.603 131.081 381.249C130.434 381.894 129.561 382.256 128.652 382.257Z" fill="#3F3D56"/>
<path d="M106.69 242.434C106.612 245.132 104.759 246.693 102.483 248.106C100.207 249.519 97.5465 250.132 94.9401 250.723C94.5901 250.911 94.1981 251.005 93.8018 250.995C93.4056 250.985 93.0186 250.872 92.6781 250.667C92.3376 250.462 92.0551 250.172 91.858 249.825C91.6608 249.477 91.5556 249.084 91.5524 248.684L89.162 239.497C88.3163 236.562 87.701 233.564 87.3217 230.532C86.746 224.697 88.1145 218.42 92.1452 214.201C96.1758 209.982 103.166 208.483 107.996 211.734C113.728 204.337 139.929 220.68 133.466 225.824C132.316 226.739 130.558 225.581 129.099 225.469C127.639 225.357 126.004 225.616 125.077 226.761C123.866 228.256 124.393 230.483 123.894 232.348C123.688 233.005 123.355 233.613 122.914 234.139C122.474 234.664 121.935 235.097 121.328 235.411C120.722 235.725 120.06 235.915 119.38 235.969C118.701 236.023 118.018 235.941 117.37 235.727C116.163 235.126 115.028 234.389 113.986 233.529C112.867 232.776 111.452 232.219 110.192 232.694C108.531 233.321 107.941 235.375 107.791 237.16C107.538 238.941 107.17 240.703 106.69 242.434Z" fill="#2F2E41"/>
<path opacity="0.2" d="M111.101 293.585L114.177 331.66L130.326 371.29L106.487 332.437L111.101 293.585Z" fill="black"/>
<path d="M309.78 502.089L141.231 401.051C138.34 399.314 136.249 396.488 135.417 393.194C134.584 389.901 135.079 386.408 136.792 383.483L215.329 249.721C216.589 247.581 218.638 246.033 221.026 245.417C223.414 244.801 225.946 245.167 228.068 246.435L402.314 350.888C404.469 352.184 406.027 354.289 406.647 356.744C407.268 359.199 406.899 361.802 405.622 363.982L327.167 497.604C325.447 500.525 322.651 502.638 319.391 503.479C316.131 504.32 312.675 503.82 309.78 502.089Z" fill="#F2F2F2"/>
<path d="M158.288 396.368L305.671 484.718C308.478 486.401 311.831 486.888 314.993 486.072C318.155 485.257 320.867 483.205 322.532 480.369L382.781 377.754C384.447 374.918 384.928 371.53 384.121 368.335C383.314 365.141 381.284 362.4 378.477 360.718L231.093 272.368C228.287 270.685 224.934 270.198 221.772 271.014C218.61 271.83 215.898 273.881 214.233 276.717L153.983 379.332C152.318 382.168 151.836 385.556 152.644 388.751C153.451 391.946 155.481 394.686 158.288 396.368Z" fill="white"/>
<path d="M405.922 363.121L215.546 248.999L218.843 243.385C220.569 240.454 223.375 238.335 226.646 237.492C229.917 236.65 233.385 237.153 236.289 238.89L404.759 339.881C407.661 341.624 409.76 344.458 410.596 347.762C411.432 351.067 410.936 354.571 409.218 357.507L405.922 363.121Z" fill="#CCCCCC"/>
<path d="M240.337 255.939C242.156 255.939 243.631 254.449 243.631 252.611C243.631 250.772 242.156 249.282 240.337 249.282C238.517 249.282 237.042 250.772 237.042 252.611C237.042 254.449 238.517 255.939 240.337 255.939Z" fill="white"/>
<path d="M251.09 262.385C252.909 262.385 254.384 260.895 254.384 259.057C254.384 257.218 252.909 255.728 251.09 255.728C249.271 255.728 247.796 257.218 247.796 259.057C247.796 260.895 249.271 262.385 251.09 262.385Z" fill="white"/>
<path d="M261.843 268.831C263.663 268.831 265.137 267.341 265.137 265.503C265.137 263.665 263.663 262.175 261.843 262.175C260.024 262.175 258.549 263.665 258.549 265.503C258.549 267.341 260.024 268.831 261.843 268.831Z" fill="white"/>
<path d="M363.564 382.602L363.35 382.967L365.516 384.265L365.731 383.901L363.564 382.602Z" fill="#E6E6E6"/>
<path d="M358.972 380.342L354.594 377.718L354.809 377.353L359.186 379.978L358.972 380.342ZM350.217 375.094L345.839 372.47L346.054 372.105L350.431 374.729L350.217 375.094ZM341.462 369.846L337.084 367.222L337.299 366.857L341.676 369.481L341.462 369.846ZM332.707 364.598L328.33 361.974L328.544 361.609L332.921 364.233L332.707 364.598ZM323.952 359.35L319.575 356.726L319.789 356.361L324.166 358.985L323.952 359.35ZM315.197 354.101L310.82 351.477L311.034 351.112L315.411 353.737L315.197 354.101ZM306.442 348.853L302.065 346.229L302.279 345.864L306.656 348.488L306.442 348.853ZM297.687 343.605L293.31 340.981L293.524 340.616L297.901 343.24L297.687 343.605ZM288.932 338.357L284.555 335.733L284.769 335.368L289.146 337.992L288.932 338.357ZM280.177 333.109L275.8 330.484L276.014 330.12L280.392 332.744L280.177 333.109ZM271.422 327.86L267.045 325.236L267.259 324.871L271.637 327.496L271.422 327.86ZM262.667 322.612L258.29 319.988L258.504 319.623L262.882 322.247L262.667 322.612ZM253.912 317.364L249.535 314.74L249.749 314.375L254.127 316.999L253.912 317.364ZM245.157 312.116L240.78 309.492L240.994 309.127L245.372 311.751L245.157 312.116ZM236.402 306.868L232.025 304.244L232.239 303.879L236.617 306.503L236.402 306.868ZM227.648 301.619L223.27 298.995L223.484 298.63L227.862 301.254L227.648 301.619Z" fill="#E6E6E6"/>
<path d="M216.94 294.707L216.726 295.072L218.893 296.371L219.107 296.006L216.94 294.707Z" fill="#E6E6E6"/>
<path d="M272.493 373.89L272.279 374.255L274.446 375.554L274.66 375.189L272.493 373.89Z" fill="#E6E6E6"/>
<path d="M267.966 371.67L263.654 369.085L263.868 368.72L268.18 371.305L267.966 371.67ZM259.341 366.499L255.029 363.914L255.243 363.549L259.555 366.135L259.341 366.499ZM250.716 361.329L246.404 358.744L246.618 358.379L250.931 360.964L250.716 361.329ZM242.091 356.159L237.779 353.574L237.993 353.209L242.306 355.794L242.091 356.159ZM233.467 350.989L229.154 348.404L229.368 348.039L233.681 350.624L233.467 350.989ZM224.842 345.818L220.529 343.233L220.743 342.868L225.056 345.453L224.842 345.818ZM216.217 340.648L211.904 338.063L212.118 337.698L216.431 340.283L216.217 340.648ZM207.592 335.478L203.279 332.893L203.494 332.528L207.806 335.113L207.592 335.478Z" fill="#E6E6E6"/>
<path d="M197.015 328.644L196.8 329.009L198.967 330.308L199.181 329.943L197.015 328.644Z" fill="#E6E6E6"/>
<path d="M220.812 364.617L220.598 364.982L222.765 366.281L222.979 365.916L220.812 364.617Z" fill="#E6E6E6"/>
<path d="M216.161 362.322L211.725 359.662L211.939 359.297L216.376 361.957L216.161 362.322ZM207.288 357.002L202.851 354.343L203.065 353.978L207.502 356.638L207.288 357.002ZM198.414 351.683L193.977 349.023L194.191 348.658L198.628 351.318L198.414 351.683Z" fill="#E6E6E6"/>
<path d="M187.587 344.7L187.373 345.065L189.54 346.364L189.754 345.999L187.587 344.7Z" fill="#E6E6E6"/>
<path d="M204.725 392.017L204.51 392.382L206.677 393.681L206.891 393.316L204.725 392.017Z" fill="#E6E6E6"/>
<path d="M200.074 389.722L195.637 387.062L195.851 386.697L200.288 389.357L200.074 389.722ZM191.2 384.403L186.763 381.743L186.977 381.378L191.414 384.038L191.2 384.403ZM182.326 379.083L177.889 376.424L178.103 376.059L182.54 378.718L182.326 379.083Z" fill="#E6E6E6"/>
<path d="M171.5 372.1L171.285 372.465L173.452 373.764L173.666 373.399L171.5 372.1Z" fill="#E6E6E6"/>
<path d="M183.338 380.068L308.236 454.939C311.262 456.748 314.875 457.271 318.282 456.392C321.689 455.513 324.612 453.305 326.409 450.251L362.902 388.098L362.651 387.957L279.853 409.311L273.295 383.363C273.175 382.883 272.947 382.438 272.628 382.062C272.31 381.686 271.909 381.39 271.459 381.197C270.769 380.916 270.008 380.873 269.292 381.074L225.902 392.263L221.106 373.292C221.003 372.882 220.82 372.497 220.57 372.159C220.319 371.821 220.005 371.536 219.645 371.32C219.286 371.104 218.887 370.962 218.473 370.902C218.06 370.842 217.638 370.865 217.233 370.97C216.94 371.048 188.705 378.607 183.338 380.068Z" fill="#002C53"/>
<path d="M182.591 380.113L182.487 379.702L217.209 370.746C218.126 370.511 219.098 370.652 219.912 371.14C220.726 371.628 221.315 372.422 221.55 373.349L226.249 391.947L269.397 380.817C270.314 380.582 271.287 380.723 272.1 381.211C272.914 381.699 273.503 382.493 273.738 383.42L280.2 408.995L363.429 387.527L363.533 387.938L279.897 409.511L273.332 383.525C273.229 383.12 273.049 382.739 272.801 382.405C272.553 382.07 272.243 381.788 271.887 381.575C271.531 381.362 271.138 381.221 270.728 381.162C270.319 381.102 269.902 381.125 269.501 381.228L225.946 392.463L221.143 373.454C220.935 372.636 220.415 371.936 219.697 371.505C218.979 371.075 218.122 370.95 217.312 371.157L182.591 380.113Z" fill="#3F3D56"/>
<path d="M222.872 369.068C224.495 369.068 225.811 367.738 225.811 366.098C225.811 364.458 224.495 363.128 222.872 363.128C221.249 363.128 219.933 364.458 219.933 366.098C219.933 367.738 221.249 369.068 222.872 369.068Z" fill="#3F3D56"/>
<path d="M274.553 378.341C276.176 378.341 277.492 377.012 277.492 375.371C277.492 373.731 276.176 372.401 274.553 372.401C272.929 372.401 271.613 373.731 271.613 375.371C271.613 377.012 272.929 378.341 274.553 378.341Z" fill="#3F3D56"/>
<path d="M364.59 385.494C366.214 385.494 367.53 384.164 367.53 382.524C367.53 380.884 366.214 379.554 364.59 379.554C362.967 379.554 361.651 380.884 361.651 382.524C361.651 384.164 362.967 385.494 364.59 385.494Z" fill="#3F3D56"/>
<path d="M134.103 386.048C133.221 385.332 132.506 384.43 132.006 383.406C131.507 382.381 131.236 381.258 131.213 380.116C131.19 378.973 131.414 377.84 131.872 376.795C132.329 375.751 133.007 374.82 133.859 374.068L123.57 348.32L137.568 351.176L145.192 375.189C146.346 376.719 146.905 378.623 146.763 380.541C146.621 382.458 145.787 384.257 144.421 385.595C143.054 386.934 141.248 387.719 139.347 387.802C137.445 387.886 135.579 387.261 134.103 386.048Z" fill="#FFB8B8"/>
<path d="M133.932 374.892C133.174 374.947 132.419 374.748 131.783 374.327C131.147 373.906 130.666 373.286 130.413 372.561L113.758 324.603L110.198 276.757C110.1 275.44 110.262 274.117 110.675 272.864C111.087 271.612 111.742 270.454 112.601 269.459C113.461 268.465 114.507 267.652 115.68 267.07C116.852 266.487 118.128 266.146 119.432 266.066C120.736 265.986 122.044 266.169 123.277 266.604C124.511 267.04 125.647 267.718 126.619 268.601C127.59 269.483 128.379 270.552 128.938 271.746C129.498 272.939 129.816 274.233 129.876 275.552L131.869 319.247L144.941 367.595C145.166 368.443 145.068 369.346 144.668 370.125C144.267 370.905 143.592 371.504 142.776 371.806L134.852 374.692C134.556 374.8 134.246 374.867 133.932 374.892Z" fill="#3F3D56"/>
<path d="M442.744 332.398C442.434 332.26 442.145 332.078 441.886 331.856L426.397 318.672C426.025 318.356 425.721 317.964 425.507 317.523C425.292 317.082 425.17 316.6 425.148 316.109C425.127 315.617 425.207 315.127 425.383 314.668C425.559 314.209 425.827 313.793 426.171 313.444L440.226 299.184C440.816 298.58 441.602 298.21 442.439 298.143C443.276 298.076 444.109 298.315 444.787 298.817L455.416 306.615C456.079 307.103 456.554 307.808 456.757 308.611C456.96 309.414 456.88 310.263 456.53 311.012L447.334 330.657C446.943 331.493 446.245 332.142 445.388 332.467C444.531 332.792 443.583 332.767 442.744 332.398Z" fill="#002C53"/>
<path d="M503.157 518.86L493.906 521.404L479.795 486.56L493.449 482.807L503.157 518.86Z" fill="#FFB8B8"/>
<path d="M486.394 520.601L504.42 515.645L507.477 526.995L478.403 534.988L478.352 534.8C477.555 531.839 477.955 528.68 479.463 526.017C480.971 523.355 483.464 521.406 486.394 520.601Z" fill="#2F2E41"/>
<path d="M424.074 525.993L414.487 525.992L409.926 488.628L424.076 488.628L424.074 525.993Z" fill="#FFB8B8"/>
<path d="M407.446 523.224H426.129V534.987H395.998V534.792C395.998 531.724 397.204 528.782 399.351 526.612C401.498 524.443 404.41 523.224 407.446 523.224Z" fill="#2F2E41"/>
<path d="M438.517 279.294C449.124 279.294 457.723 270.605 457.723 259.887C457.723 249.169 449.124 240.48 438.517 240.48C427.909 240.48 419.31 249.169 419.31 259.887C419.31 270.605 427.909 279.294 438.517 279.294Z" fill="#FFB8B8"/>
<path d="M423.487 499.352H410.386C409.491 499.35 408.629 499.005 407.976 498.385C407.323 497.766 406.928 496.919 406.871 496.016C402.967 433.308 405.25 388.327 414.057 354.458C414.095 354.31 414.143 354.164 414.199 354.022L414.901 352.25C415.16 351.588 415.611 351.021 416.194 350.623C416.776 350.224 417.465 350.012 418.169 350.014H445.11C445.617 350.014 446.119 350.125 446.58 350.339C447.042 350.553 447.451 350.866 447.781 351.256L451.441 355.57C451.512 355.654 451.579 355.74 451.643 355.83C468.144 379.081 482.932 424.537 500.058 485.634C500.311 486.522 500.211 487.475 499.779 488.289C499.346 489.103 498.617 489.715 497.745 489.993L483.665 494.546C482.857 494.803 481.984 494.758 481.205 494.42C480.427 494.082 479.794 493.473 479.423 492.703L442.886 416.132C442.631 415.597 442.211 415.159 441.69 414.883C441.169 414.608 440.574 414.509 439.994 414.602C439.413 414.695 438.877 414.974 438.466 415.398C438.054 415.823 437.789 416.37 437.709 416.958L426.974 496.278C426.856 497.128 426.438 497.908 425.798 498.472C425.158 499.037 424.337 499.349 423.487 499.352Z" fill="#2F2E41"/>
<path d="M449.964 355.885C449.927 355.885 449.89 355.885 449.853 355.884L417.128 354.84C416.287 354.816 415.482 354.487 414.861 353.914C414.239 353.34 413.843 352.56 413.744 351.716C409.595 317.785 420.972 308.696 426.056 306.363C426.481 306.169 426.849 305.868 427.125 305.488C427.401 305.108 427.575 304.663 427.63 304.196L428.07 300.639C428.145 300.011 428.385 299.415 428.765 298.912C436.736 288.478 447.621 285.137 453.4 284.075C453.869 283.989 454.35 284.001 454.813 284.11C455.277 284.218 455.715 284.421 456.099 284.706C456.483 284.99 456.806 285.35 457.048 285.765C457.29 286.179 457.446 286.639 457.506 287.116L458.165 292.223C458.233 292.71 458.425 293.171 458.723 293.559C475.348 315.519 456.827 347.943 452.946 354.219C452.629 354.729 452.189 355.149 451.667 355.441C451.146 355.732 450.56 355.885 449.964 355.885Z" fill="#002C53"/>
<path d="M459.648 247.817C458.222 243.448 457.169 238.963 456.501 234.411C456.291 231.761 456.963 228.91 458.872 227.082C462.447 223.66 468.519 225.29 472.257 228.528C477.659 233.208 480.353 240.4 481.371 247.516C482.389 254.632 481.941 261.868 482.186 269.053C482.431 276.239 483.448 283.627 487.074 289.814C490.699 296 497.427 300.749 504.523 300.222C507.388 300.066 510.108 298.901 512.211 296.93C513.243 295.938 514.025 294.71 514.491 293.349C514.957 291.988 515.093 290.534 514.888 289.109C518.515 295.672 516.676 304.566 511.266 309.725C505.856 314.884 497.535 316.342 490.422 314.14C483.31 311.937 477.456 306.414 473.96 299.78C470.463 293.145 469.182 285.481 469.368 277.967C469.51 272.197 470.481 266.379 469.516 260.69C468.551 255.001 465.027 249.225 459.471 247.885L459.648 247.817Z" fill="#2F2E41"/>
<path d="M434.696 255.297C433.748 258.495 430.125 260.467 426.865 259.926C425.242 259.585 423.741 258.806 422.521 257.673C421.301 256.539 420.407 255.093 419.934 253.488C419.039 250.236 419.405 246.761 420.959 243.772C421.815 241.981 423.013 240.378 424.483 239.055C425.953 237.732 427.667 236.714 429.527 236.061C431.397 235.435 433.389 235.272 435.334 235.586C437.28 235.9 439.122 236.682 440.706 237.866C440.874 237.148 441.23 236.488 441.735 235.954C442.239 235.421 442.876 235.033 443.579 234.83C444.994 234.445 446.487 234.467 447.89 234.895C451.933 236.059 455.437 238.634 457.778 242.163C460.089 245.68 461.618 249.662 462.259 253.834C463.362 260.091 462.955 266.928 459.477 272.223C456 277.519 448.885 280.646 443.113 278.121C442.753 276.262 443.605 274.39 444.592 272.779C445.578 271.168 446.747 269.598 447.126 267.743C447.505 265.888 446.779 263.618 445.003 263.012C443.487 262.494 441.872 263.333 440.276 263.434C439.369 263.491 438.464 263.307 437.65 262.899C436.836 262.492 436.143 261.875 435.639 261.111C435.136 260.347 434.84 259.462 434.782 258.547C434.724 257.631 434.905 256.715 435.307 255.892L434.696 255.297Z" fill="#2F2E41"/>
<path d="M386.018 335.246C386.336 335.543 386.63 335.864 386.898 336.208L425.562 333.167L429.639 324.585L443.262 329.109L435.894 349.464L387.19 346.161C386.227 347.536 384.874 348.583 383.308 349.162C381.743 349.74 380.041 349.824 378.428 349.401C376.814 348.978 375.367 348.069 374.277 346.795C373.188 345.521 372.508 343.942 372.328 342.267C372.148 340.593 372.478 338.903 373.272 337.423C374.066 335.942 375.287 334.741 376.773 333.978C378.259 333.216 379.94 332.929 381.591 333.156C383.243 333.382 384.787 334.111 386.018 335.246Z" fill="#FFB8B8"/>
<path d="M443.052 342.667C442.726 342.573 442.415 342.433 442.129 342.249L425.006 331.321C424.595 331.059 424.241 330.712 423.969 330.305C423.696 329.897 423.511 329.437 423.423 328.953C423.336 328.469 423.349 327.972 423.461 327.494C423.574 327.015 423.783 326.565 424.077 326.173L436.078 310.11C436.581 309.43 437.309 308.956 438.129 308.774C438.95 308.592 439.808 308.714 440.546 309.118L452.128 315.381C452.851 315.772 453.416 316.406 453.726 317.173C454.035 317.94 454.07 318.793 453.824 319.583L447.364 340.311C447.089 341.193 446.485 341.932 445.681 342.372C444.876 342.811 443.933 342.917 443.052 342.667Z" fill="#002C53"/>
</g>
<defs>
<clipPath id="clip0_44_95">
<rect width="586" height="536" fill="white"/>
</clipPath>
</defs>
</svg>
